<svg width="58" height="65" viewBox="0 0 58 65" fill="none" xmlns="http://www.w3.org/2000/svg">
<g clip-path="url(#clip0_1473_140)">
<path d="M3.31858 64.1313V64.9274H0V60.6439H3.23843V61.44H0.985556V62.37H2.97545V63.1411H0.985556V64.1325H3.31858V64.1313Z" fill="#313131"/>
<path d="M8.03859 60.6426V64.9261H7.22459L5.08818 62.325V64.9261H4.10889V60.6426H4.92914L7.06054 63.2438V60.6426H8.03984H8.03859Z" fill="#313131"/>
<path d="M11.9519 62.7168H12.8586V64.4555C12.6256 64.6307 12.3564 64.7647 12.0508 64.8585C11.744 64.9524 11.436 65 11.1266 65C10.6821 65 10.2813 64.9049 9.92694 64.7158C9.57129 64.5256 9.29328 64.2627 9.09041 63.926C8.88879 63.5893 8.78735 63.2087 8.78735 62.7844C8.78735 62.36 8.88879 61.9795 9.09041 61.6428C9.29203 61.3061 9.57254 61.0432 9.93195 60.8529C10.2914 60.6639 10.6958 60.5688 11.1442 60.5688C11.5186 60.5688 11.8605 60.6314 12.166 60.7578C12.4729 60.8842 12.7296 61.067 12.9375 61.3086L12.3 61.8969C11.9945 61.5739 11.6251 61.4137 11.1918 61.4137C10.9188 61.4137 10.6746 61.4713 10.4629 61.5852C10.2513 61.6991 10.086 61.8606 9.96701 62.0684C9.84805 62.2762 9.79044 62.5153 9.79044 62.7844C9.79044 63.0535 9.8493 63.2863 9.96701 63.4941C10.0847 63.7019 10.25 63.8646 10.4604 63.9811C10.6708 64.0975 10.91 64.1551 11.1805 64.1551C11.466 64.1551 11.7227 64.0937 11.9519 63.971V62.7155V62.7168Z" fill="#313131"/>
<path d="M13.7764 60.6426H14.7682V64.9261H13.7764V60.6426Z" fill="#313131"/>
<path d="M19.7149 60.6426V64.9261H18.9009L16.7644 62.325V64.9261H15.7852V60.6426H16.6054L18.7368 63.2438V60.6426H19.7161H19.7149Z" fill="#313131"/>
<path d="M24.049 64.1313V64.9274H20.7305V60.6439H23.9689V61.44H21.716V62.37H23.7059V63.1411H21.716V64.1325H24.049V64.1313Z" fill="#313131"/>
<path d="M28.1579 64.1313V64.9274H24.8394V60.6439H28.0778V61.44H25.8249V62.37H27.8148V63.1411H25.8249V64.1325H28.1579V64.1313Z" fill="#313131"/>
<path d="M31.678 64.9261L30.8515 63.7332H29.9398V64.9261H28.948V60.6426H30.8026C31.1821 60.6426 31.5114 60.7052 31.792 60.8329C32.0712 60.9593 32.2866 61.1383 32.4381 61.3711C32.5897 61.604 32.6648 61.8794 32.6648 62.1973C32.6648 62.5153 32.5884 62.7894 32.4356 63.0197C32.2816 63.25 32.065 63.4265 31.7832 63.5492L32.745 64.9261H31.6793H31.678ZM31.4275 61.6428C31.2723 61.5151 31.0456 61.45 30.7475 61.45H29.9398V62.9434H30.7475C31.0456 62.9434 31.2723 62.8783 31.4275 62.7481C31.5828 62.6179 31.6605 62.4339 31.6605 62.1973C31.6605 61.9607 31.5828 61.7717 31.4275 61.6428Z" fill="#313131"/>
<path d="M33.4475 60.6426H34.4393V64.9261H33.4475V60.6426Z" fill="#313131"/>
<path d="M39.3872 60.6426V64.9261H38.5732L36.4368 62.325V64.9261H35.4575V60.6426H36.2778L38.4092 63.2438V60.6426H39.3885H39.3872Z" fill="#313131"/>
<path d="M43.2993 62.7168H44.206V64.4555C43.973 64.6307 43.7038 64.7647 43.3982 64.8585C43.0914 64.9524 42.7834 65 42.4741 65C42.0295 65 41.6288 64.9049 41.2744 64.7158C40.9187 64.5256 40.6407 64.2627 40.4378 63.926C40.2362 63.5893 40.1348 63.2087 40.1348 62.7844C40.1348 62.36 40.2362 61.9795 40.4378 61.6428C40.6394 61.3061 40.92 61.0432 41.2794 60.8529C41.6388 60.6639 42.0433 60.5688 42.4916 60.5688C42.866 60.5688 43.2079 60.6314 43.5135 60.7578C43.8203 60.8842 44.077 61.067 44.2849 61.3086L43.6475 61.8969C43.3419 61.5739 42.9725 61.4137 42.5392 61.4137C42.2662 61.4137 42.022 61.4713 41.8103 61.5852C41.5987 61.6991 41.4334 61.8606 41.3144 62.0684C41.1955 62.2762 41.1379 62.5153 41.1379 62.7844C41.1379 63.0535 41.1967 63.2863 41.3144 63.4941C41.4321 63.7019 41.5974 63.8646 41.8078 63.9811C42.0182 64.0975 42.2574 64.1551 42.5279 64.1551C42.8134 64.1551 43.0701 64.0937 43.2993 63.971V62.7155V62.7168Z" fill="#313131"/>
<path d="M46.8572 60.6426H47.849V64.1188H49.9979V64.9261H46.8572V60.6426Z" fill="#313131"/>
<path d="M50.5552 60.6426H51.547V64.1188H53.6959V64.9261H50.5552V60.6426Z" fill="#313131"/>
<path d="M55.0457 64.7158C54.6926 64.5256 54.4146 64.2627 54.213 63.926C54.0113 63.5893 53.9099 63.2087 53.9099 62.7844C53.9099 62.36 54.0113 61.9795 54.213 61.6428C54.4146 61.3061 54.6926 61.0432 55.0457 60.8529C55.3989 60.6639 55.7959 60.5688 56.2367 60.5688C56.6086 60.5688 56.9442 60.6339 57.2435 60.764C57.5441 60.8942 57.7958 61.0832 57.9999 61.3273L57.3625 61.9144C57.0732 61.5789 56.7138 61.4125 56.2855 61.4125C56.02 61.4125 55.7833 61.47 55.5755 61.5865C55.3676 61.7029 55.2048 61.8656 55.0883 62.0734C54.9719 62.2812 54.9143 62.5178 54.9143 62.7831C54.9143 63.0485 54.9719 63.2851 55.0883 63.4929C55.2048 63.7007 55.3676 63.8634 55.5755 63.9798C55.7833 64.0962 56.02 64.1538 56.2855 64.1538C56.7138 64.1538 57.0732 63.9836 57.3625 63.6456L57.9999 64.2327C57.7958 64.4818 57.5428 64.6708 57.241 64.8022C56.9392 64.9336 56.6023 64.9975 56.2304 64.9975C55.7934 64.9975 55.3989 64.9024 55.0457 64.7133V64.7158Z" fill="#313131"/>
<path d="M0.0612793 0V34.4459H16.8545V22.4465L15.1765 23.8585V32.6433H1.77567V1.71366H56.0426V32.6446H42.6418V18.9453L40.9575 18.1367V34.4459H57.757V0H0.0612793Z" fill="#E03740"/>
<path d="M17.8701 34.4459H19.5482V18.2544L17.8701 19.6664V34.4459Z" fill="#E03740"/>
<path d="M20.873 34.4459H22.5511V16.0475L20.873 17.4595V34.4459Z" fill="#E03740"/>
<path d="M26.5686 34.4459H28.8065V5.02831L26.5686 3.96056V34.4459Z" fill="#E03740"/>
<path d="M38.3665 34.4459H39.8742V17.6172L38.3665 16.8937V34.4459Z" fill="#E03740"/>
<path d="M35.2819 8.11639L33.9871 7.49928V34.4459H37.2844V16.3742L35.2819 15.4141V8.11639Z" fill="#E03740"/>
<path d="M29.5127 18.6599L31.043 17.7186V6.09481L29.5127 5.36503V18.6599Z" fill="#E03740"/>
<path d="M31.7505 17.651L33.2808 16.7085V7.16256L31.7505 6.43278V17.651Z" fill="#E03740"/>
<path d="M23.6846 34.4459H25.8623V3.62384L23.6846 2.58488V34.4459Z" fill="#E03740"/>
<path d="M16.38 49.9689H4.40808V47.8121H12.1397V44.0543L0 44.0193V52.0844C0 52.9906 0.732592 53.7254 1.6355 53.7254H16.38C16.8646 53.7254 17.2579 53.3311 17.2579 52.8442V50.8489C17.2579 50.3619 16.8646 49.9676 16.38 49.9676V49.9689Z" fill="url(#paint0_linear_1473_140)"/>
<path d="M16.38 38.1611H1.6355C0.732592 38.1611 0 38.8971 0 39.8034V41.9414L16.38 41.9188C16.8646 41.9188 17.2579 41.5245 17.2579 41.0376V39.0423C17.2579 38.5554 16.8646 38.1611 16.38 38.1611Z" fill="url(#paint1_linear_1473_140)"/>
<path d="M55.9988 38.1611H41.8154C40.8448 38.1611 40.0571 38.9509 40.0571 39.926V52.8279C40.0571 53.3236 40.4579 53.7254 40.9525 53.7254H43.5711C44.0657 53.7254 44.4652 53.3236 44.4652 52.8279V49.3906H53.349V52.8279C53.349 53.3236 53.7497 53.7254 54.2444 53.7254H56.8629C57.3576 53.7254 57.7571 53.3236 57.7571 52.8279V39.926C57.7571 38.9509 56.9694 38.1611 55.9988 38.1611ZM53.349 45.6103H44.4652V41.9414H53.349V45.6103Z" fill="url(#paint2_linear_1473_140)"/>
<path d="M36.1587 38.1611H34.2252C33.5414 38.1611 32.9879 38.7168 32.9879 39.4028V43.3859L21.0661 38.5003C20.4124 38.2324 19.696 38.7156 19.696 39.4241V52.8279C19.696 53.3236 20.0968 53.7254 20.5914 53.7254H23.21C23.7046 53.7254 24.1041 53.3236 24.1041 52.8279V44.4987L32.9879 48.279V52.8292C32.9879 53.3249 33.3886 53.7267 33.8833 53.7267H36.5018C36.9965 53.7267 37.396 53.3249 37.396 52.8292V39.4041C37.396 38.7181 36.8425 38.1623 36.1587 38.1623V38.1611Z" fill="url(#paint3_linear_1473_140)"/>
<path d="M57.757 55.9573H0.0612793V57.671H57.757V55.9573Z" fill="#E03740"/>
</g>
<defs>
<linearGradient id="paint0_linear_1473_140" x1="8.62956" y1="37.7818" x2="8.62956" y2="53.8481" gradientUnits="userSpaceOnUse">
<stop stop-color="#313131"/>
<stop offset="0.49" stop-color="#313131"/>
<stop offset="1" stop-color="#141515"/>
</linearGradient>
<linearGradient id="paint1_linear_1473_140" x1="8.62956" y1="37.7818" x2="8.62956" y2="53.8481" gradientUnits="userSpaceOnUse">
<stop stop-color="#313131"/>
<stop offset="0.49" stop-color="#313131"/>
<stop offset="1" stop-color="#141515"/>
</linearGradient>
<linearGradient id="paint2_linear_1473_140" x1="48.9071" y1="37.7818" x2="48.9071" y2="53.8481" gradientUnits="userSpaceOnUse">
<stop stop-color="#313131"/>
<stop offset="0.49" stop-color="#313131"/>
<stop offset="1" stop-color="#141515"/>
</linearGradient>
<linearGradient id="paint3_linear_1473_140" x1="28.546" y1="37.7818" x2="28.546" y2="53.8481" gradientUnits="userSpaceOnUse">
<stop stop-color="#313131"/>
<stop offset="0.49" stop-color="#313131"/>
<stop offset="1" stop-color="#141515"/>
</linearGradient>
<clipPath id="clip0_1473_140">
<rect width="58" height="65" fill="white"/>
</clipPath>
</defs>
</svg>
