<svg width="58" height="65" viewBox="0 0 58 65" fill="none" xmlns="http://www.w3.org/2000/svg">
<g clip-path="url(#clip0_1473_179)">
<path d="M3.31858 64.1314V64.9276H0V60.644H3.23843V61.4402H0.985556V62.3702H2.97545V63.1413H0.985556V64.1327H3.31858V64.1314Z" fill="white"/>
<path d="M8.03859 60.6428V64.9263H7.22459L5.08818 62.3252V64.9263H4.10889V60.6428H4.92914L7.06054 63.244V60.6428H8.03984H8.03859Z" fill="white"/>
<path d="M11.9519 62.7169H12.8586V64.4556C12.6256 64.6308 12.3564 64.7647 12.0508 64.8586C11.744 64.9525 11.436 65.0001 11.1266 65.0001C10.6821 65.0001 10.2813 64.9049 9.92694 64.7159C9.57129 64.5257 9.29328 64.2628 9.09041 63.9261C8.88879 63.5893 8.78735 63.2088 8.78735 62.7845C8.78735 62.3601 8.88879 61.9796 9.09041 61.6429C9.29203 61.3061 9.57254 61.0433 9.93195 60.853C10.2914 60.664 10.6958 60.5688 11.1442 60.5688C11.5186 60.5688 11.8605 60.6314 12.166 60.7579C12.4729 60.8843 12.7296 61.067 12.9375 61.3086L12.3 61.897C11.9945 61.574 11.6251 61.4138 11.1918 61.4138C10.9188 61.4138 10.6746 61.4714 10.4629 61.5853C10.2513 61.6992 10.086 61.8607 9.96701 62.0685C9.84805 62.2762 9.79044 62.5153 9.79044 62.7845C9.79044 63.0536 9.8493 63.2864 9.96701 63.4942C10.0847 63.702 10.25 63.8647 10.4604 63.9811C10.6708 64.0976 10.91 64.1551 11.1805 64.1551C11.466 64.1551 11.7227 64.0938 11.9519 63.9711V62.7156V62.7169Z" fill="white"/>
<path d="M13.7764 60.6428H14.7682V64.9263H13.7764V60.6428Z" fill="white"/>
<path d="M19.7149 60.6428V64.9263H18.9009L16.7644 62.3252V64.9263H15.7852V60.6428H16.6054L18.7368 63.244V60.6428H19.7161H19.7149Z" fill="white"/>
<path d="M24.049 64.1314V64.9276H20.7305V60.644H23.9689V61.4402H21.716V62.3702H23.7059V63.1413H21.716V64.1327H24.049V64.1314Z" fill="white"/>
<path d="M28.1579 64.1314V64.9276H24.8394V60.644H28.0778V61.4402H25.8249V62.3702H27.8148V63.1413H25.8249V64.1327H28.1579V64.1314Z" fill="white"/>
<path d="M31.678 64.9263L30.8515 63.7334H29.9398V64.9263H28.948V60.6428H30.8026C31.1821 60.6428 31.5114 60.7054 31.792 60.8331C32.0712 60.9595 32.2866 61.1385 32.4381 61.3713C32.5897 61.6042 32.6648 61.8796 32.6648 62.1975C32.6648 62.5155 32.5884 62.7896 32.4356 63.0199C32.2816 63.2502 32.065 63.4267 31.7832 63.5494L32.745 64.9263H31.6793H31.678ZM31.4275 61.643C31.2723 61.5153 31.0456 61.4502 30.7475 61.4502H29.9398V62.9436H30.7475C31.0456 62.9436 31.2723 62.8785 31.4275 62.7483C31.5828 62.6181 31.6605 62.4341 31.6605 62.1975C31.6605 61.9609 31.5828 61.7719 31.4275 61.643Z" fill="white"/>
<path d="M33.4475 60.6428H34.4393V64.9263H33.4475V60.6428Z" fill="white"/>
<path d="M39.3872 60.6428V64.9263H38.5732L36.4368 62.3252V64.9263H35.4575V60.6428H36.2778L38.4092 63.244V60.6428H39.3885H39.3872Z" fill="white"/>
<path d="M43.2993 62.7169H44.206V64.4556C43.973 64.6308 43.7038 64.7647 43.3982 64.8586C43.0914 64.9525 42.7834 65.0001 42.4741 65.0001C42.0295 65.0001 41.6288 64.9049 41.2744 64.7159C40.9187 64.5257 40.6407 64.2628 40.4378 63.9261C40.2362 63.5893 40.1348 63.2088 40.1348 62.7845C40.1348 62.3601 40.2362 61.9796 40.4378 61.6429C40.6394 61.3061 40.92 61.0433 41.2794 60.853C41.6388 60.664 42.0433 60.5688 42.4916 60.5688C42.866 60.5688 43.2079 60.6314 43.5135 60.7579C43.8203 60.8843 44.077 61.067 44.2849 61.3086L43.6475 61.897C43.3419 61.574 42.9725 61.4138 42.5392 61.4138C42.2662 61.4138 42.022 61.4714 41.8103 61.5853C41.5987 61.6992 41.4334 61.8607 41.3144 62.0685C41.1955 62.2762 41.1379 62.5153 41.1379 62.7845C41.1379 63.0536 41.1967 63.2864 41.3144 63.4942C41.4321 63.702 41.5974 63.8647 41.8078 63.9811C42.0182 64.0976 42.2574 64.1551 42.5279 64.1551C42.8134 64.1551 43.0701 64.0938 43.2993 63.9711V62.7156V62.7169Z" fill="white"/>
<path d="M46.8572 60.6428H47.849V64.119H49.9979V64.9263H46.8572V60.6428Z" fill="white"/>
<path d="M50.5552 60.6428H51.547V64.119H53.6959V64.9263H50.5552V60.6428Z" fill="white"/>
<path d="M55.0457 64.7159C54.6926 64.5257 54.4146 64.2628 54.213 63.9261C54.0113 63.5893 53.9099 63.2088 53.9099 62.7845C53.9099 62.3601 54.0113 61.9796 54.213 61.6429C54.4146 61.3061 54.6926 61.0433 55.0457 60.853C55.3989 60.664 55.7959 60.5688 56.2367 60.5688C56.6086 60.5688 56.9442 60.6339 57.2435 60.7641C57.5441 60.8943 57.7958 61.0833 57.9999 61.3274L57.3625 61.9145C57.0732 61.579 56.7138 61.4125 56.2855 61.4125C56.02 61.4125 55.7833 61.4701 55.5755 61.5865C55.3676 61.7029 55.2048 61.8657 55.0883 62.0735C54.9719 62.2813 54.9143 62.5178 54.9143 62.7832C54.9143 63.0486 54.9719 63.2852 55.0883 63.493C55.2048 63.7007 55.3676 63.8635 55.5755 63.9799C55.7833 64.0963 56.02 64.1539 56.2855 64.1539C56.7138 64.1539 57.0732 63.9836 57.3625 63.6457L57.9999 64.2327C57.7958 64.4818 57.5428 64.6709 57.241 64.8023C56.9392 64.9337 56.6023 64.9976 56.2304 64.9976C55.7934 64.9976 55.3989 64.9024 55.0457 64.7134V64.7159Z" fill="white"/>
<path d="M0.0612793 0V34.4459H16.8545V22.4465L15.1765 23.8585V32.6433H1.77567V1.71366H56.0426V32.6446H42.6418V18.9453L40.9575 18.1367V34.4459H57.757V0H0.0612793Z" fill="#E03740"/>
<path d="M17.8701 34.4459H19.5482V18.2544L17.8701 19.6664V34.4459Z" fill="#E03740"/>
<path d="M20.873 34.4459H22.5511V16.0476L20.873 17.4596V34.4459Z" fill="#E03740"/>
<path d="M26.5686 34.4457H28.8065V5.0282L26.5686 3.96045V34.4457Z" fill="#E03740"/>
<path d="M38.3665 34.4459H39.8742V17.6173L38.3665 16.8938V34.4459Z" fill="#E03740"/>
<path d="M35.2819 8.11638L33.9871 7.49927V34.4458H37.2844V16.3742L35.2819 15.4141V8.11638Z" fill="#E03740"/>
<path d="M29.5127 18.6599L31.043 17.7186V6.09476L29.5127 5.36499V18.6599Z" fill="#E03740"/>
<path d="M31.7505 17.6511L33.2808 16.7085V7.16264L31.7505 6.43286V17.6511Z" fill="#E03740"/>
<path d="M23.6846 34.4459H25.8623V3.62392L23.6846 2.58496V34.4459Z" fill="#E03740"/>
<path d="M16.38 49.9689H4.40808V47.8121H12.1397V44.0543L0 44.0193V52.0844C0 52.9906 0.732592 53.7254 1.6355 53.7254H16.38C16.8646 53.7254 17.2579 53.3311 17.2579 52.8442V50.8489C17.2579 50.3619 16.8646 49.9676 16.38 49.9676V49.9689Z" fill="white"/>
<path d="M16.38 38.1611H1.6355C0.732592 38.1611 0 38.8972 0 39.8034V41.9414L16.38 41.9189C16.8646 41.9189 17.2579 41.5246 17.2579 41.0377V39.0424C17.2579 38.5554 16.8646 38.1611 16.38 38.1611Z" fill="white"/>
<path d="M55.9988 38.1611H41.8154C40.8448 38.1611 40.0571 38.951 40.0571 39.9261V52.828C40.0571 53.3237 40.4579 53.7255 40.9525 53.7255H43.5711C44.0657 53.7255 44.4652 53.3237 44.4652 52.828V49.3906H53.349V52.828C53.349 53.3237 53.7497 53.7255 54.2444 53.7255H56.8629C57.3576 53.7255 57.7571 53.3237 57.7571 52.828V39.9261C57.7571 38.951 56.9694 38.1611 55.9988 38.1611ZM53.349 45.6103H44.4652V41.9414H53.349V45.6103Z" fill="white"/>
<path d="M36.1587 38.1611H34.2252C33.5414 38.1611 32.9879 38.7169 32.9879 39.4029V43.386L21.0661 38.5004C20.4124 38.2325 19.696 38.7157 19.696 39.4242V52.828C19.696 53.3237 20.0968 53.7255 20.5914 53.7255H23.21C23.7046 53.7255 24.1041 53.3237 24.1041 52.828V44.4988L32.9879 48.2791V52.8292C32.9879 53.3249 33.3886 53.7267 33.8833 53.7267H36.5018C36.9965 53.7267 37.396 53.3249 37.396 52.8292V39.4041C37.396 38.7182 36.8425 38.1624 36.1587 38.1624V38.1611Z" fill="white"/>
<path d="M57.757 55.9573H0.0612793V57.6709H57.757V55.9573Z" fill="#E03740"/>
</g>
<defs>
<clipPath id="clip0_1473_179">
<rect width="58" height="65" fill="white"/>
</clipPath>
</defs>
</svg>
