<svg width="58" height="65" viewBox="0 0 58 65" fill="none" xmlns="http://www.w3.org/2000/svg">
<g clip-path="url(#clip0_1179_7)">
<path d="M3.31858 64.1313V64.9274H0V60.6439H3.23843V61.44H0.985556V62.37H2.97545V63.1411H0.985556V64.1325H3.31858V64.1313Z" fill="#313131"/>
<path d="M8.0381 60.6426V64.9261H7.22411L5.08769 62.325V64.9261H4.1084V60.6426H4.92865L7.06006 63.2438V60.6426H8.03935H8.0381Z" fill="#313131"/>
<path d="M11.9517 62.7168H12.8583V64.4555C12.6254 64.6307 12.3561 64.7647 12.0506 64.8585C11.7438 64.9524 11.4357 65 11.1264 65C10.6818 65 10.2811 64.9049 9.9267 64.7158C9.57105 64.5256 9.29304 64.2627 9.09016 63.926C8.88854 63.5893 8.78711 63.2087 8.78711 62.7844C8.78711 62.36 8.88854 61.9795 9.09016 61.6428C9.29178 61.3061 9.5723 61.0432 9.93171 60.8529C10.2911 60.6639 10.6956 60.5688 11.1439 60.5688C11.5184 60.5688 11.8602 60.6314 12.1658 60.7578C12.4726 60.8842 12.7293 61.067 12.9372 61.3086L12.2998 61.8969C11.9942 61.5739 11.6248 61.4137 11.1915 61.4137C10.9185 61.4137 10.6743 61.4713 10.4627 61.5852C10.251 61.6991 10.0857 61.8606 9.96677 62.0684C9.8478 62.2762 9.7902 62.5153 9.7902 62.7844C9.7902 63.0535 9.84905 63.2863 9.96677 63.4941C10.0845 63.7019 10.2498 63.8646 10.4602 63.9811C10.6706 64.0975 10.9097 64.1551 11.1802 64.1551C11.4658 64.1551 11.7225 64.0937 11.9517 63.971V62.7155V62.7168Z" fill="#313131"/>
<path d="M13.7764 60.6426H14.7682V64.9261H13.7764V60.6426Z" fill="#313131"/>
<path d="M19.7149 60.6426V64.9261H18.9009L16.7644 62.325V64.9261H15.7852V60.6426H16.6054L18.7368 63.2438V60.6426H19.7161H19.7149Z" fill="#313131"/>
<path d="M24.049 64.1313V64.9274H20.7305V60.6439H23.9689V61.44H21.716V62.37H23.7059V63.1411H21.716V64.1325H24.049V64.1313Z" fill="#313131"/>
<path d="M28.1574 64.1313V64.9274H24.8389V60.6439H28.0773V61.44H25.8244V62.37H27.8143V63.1411H25.8244V64.1325H28.1574V64.1313Z" fill="#313131"/>
<path d="M31.6782 64.9261L30.8517 63.7332H29.9401V64.9261H28.9482V60.6426H30.8029C31.1823 60.6426 31.5117 60.7052 31.7922 60.8329C32.0715 60.9593 32.2869 61.1383 32.4384 61.3711C32.5899 61.604 32.6651 61.8794 32.6651 62.1973C32.6651 62.5153 32.5887 62.7894 32.4359 63.0197C32.2818 63.25 32.0652 63.4265 31.7834 63.5492L32.7452 64.9261H31.6795H31.6782ZM31.4278 61.6428C31.2725 61.5151 31.0458 61.45 30.7478 61.45H29.9401V62.9434H30.7478C31.0458 62.9434 31.2725 62.8783 31.4278 62.7481C31.5831 62.6179 31.6607 62.4339 31.6607 62.1973C31.6607 61.9607 31.5831 61.7717 31.4278 61.6428Z" fill="#313131"/>
<path d="M33.4473 60.6426H34.4391V64.9261H33.4473V60.6426Z" fill="#313131"/>
<path d="M39.3867 60.6426V64.9261H38.5727L36.4363 62.325V64.9261H35.457V60.6426H36.2773L38.4087 63.2438V60.6426H39.388H39.3867Z" fill="#313131"/>
<path d="M43.2993 62.7168H44.206V64.4555C43.973 64.6307 43.7038 64.7647 43.3982 64.8585C43.0914 64.9524 42.7834 65 42.4741 65C42.0295 65 41.6288 64.9049 41.2744 64.7158C40.9187 64.5256 40.6407 64.2627 40.4378 63.926C40.2362 63.5893 40.1348 63.2087 40.1348 62.7844C40.1348 62.36 40.2362 61.9795 40.4378 61.6428C40.6394 61.3061 40.92 61.0432 41.2794 60.8529C41.6388 60.6639 42.0433 60.5688 42.4916 60.5688C42.866 60.5688 43.2079 60.6314 43.5135 60.7578C43.8203 60.8842 44.077 61.067 44.2849 61.3086L43.6475 61.8969C43.3419 61.5739 42.9725 61.4137 42.5392 61.4137C42.2662 61.4137 42.022 61.4713 41.8103 61.5852C41.5987 61.6991 41.4334 61.8606 41.3144 62.0684C41.1955 62.2762 41.1379 62.5153 41.1379 62.7844C41.1379 63.0535 41.1967 63.2863 41.3144 63.4941C41.4321 63.7019 41.5974 63.8646 41.8078 63.9811C42.0182 64.0975 42.2574 64.1551 42.5279 64.1551C42.8134 64.1551 43.0701 64.0937 43.2993 63.971V62.7155V62.7168Z" fill="#313131"/>
<path d="M46.8574 60.6426H47.8492V64.1188H49.9982V64.9261H46.8574V60.6426Z" fill="#313131"/>
<path d="M50.5547 60.6426H51.5465V64.1188H53.6954V64.9261H50.5547V60.6426Z" fill="#313131"/>
<path d="M55.046 64.7158C54.6928 64.5256 54.4148 64.2627 54.2132 63.926C54.0116 63.5893 53.9102 63.2087 53.9102 62.7844C53.9102 62.36 54.0116 61.9795 54.2132 61.6428C54.4148 61.3061 54.6928 61.0432 55.046 60.8529C55.3991 60.6639 55.7961 60.5688 56.2369 60.5688C56.6089 60.5688 56.9445 60.6339 57.2438 60.764C57.5443 60.8942 57.796 61.0832 58.0001 61.3273L57.3627 61.9144C57.0735 61.5789 56.714 61.4125 56.2858 61.4125C56.0203 61.4125 55.7836 61.47 55.5757 61.5865C55.3678 61.7029 55.205 61.8656 55.0886 62.0734C54.9721 62.2812 54.9145 62.5178 54.9145 62.7831C54.9145 63.0485 54.9721 63.2851 55.0886 63.4929C55.205 63.7007 55.3678 63.8634 55.5757 63.9798C55.7836 64.0962 56.0203 64.1538 56.2858 64.1538C56.714 64.1538 57.0735 63.9836 57.3627 63.6456L58.0001 64.2327C57.796 64.4818 57.5431 64.6708 57.2413 64.8022C56.9395 64.9336 56.6026 64.9975 56.2307 64.9975C55.7936 64.9975 55.3991 64.9024 55.046 64.7133V64.7158Z" fill="#313131"/>
<path d="M0.0615234 0V34.4459H16.8548V22.4465L15.1767 23.8585V32.6433H1.77591V1.71366H56.0428V32.6446H42.642V18.9453L40.9577 18.1367V34.4459H57.7572V0H0.0615234Z" fill="#E03740"/>
<path d="M17.8701 34.4459H19.5482V18.2544L17.8701 19.6664V34.4459Z" fill="#E03740"/>
<path d="M20.873 34.4459H22.5511V16.0475L20.873 17.4595V34.4459Z" fill="#E03740"/>
<path d="M26.5684 34.4459H28.8062V5.02831L26.5684 3.96056V34.4459Z" fill="#E03740"/>
<path d="M38.3672 34.4459H39.875V17.6172L38.3672 16.8937V34.4459Z" fill="#E03740"/>
<path d="M35.2822 8.11639L33.9873 7.49928V34.4459H37.2846V16.3742L35.2822 15.4141V8.11639Z" fill="#E03740"/>
<path d="M29.5127 18.6599L31.043 17.7186V6.09481L29.5127 5.36503V18.6599Z" fill="#E03740"/>
<path d="M31.751 17.651L33.2813 16.7085V7.16256L31.751 6.43278V17.651Z" fill="#E03740"/>
<path d="M23.6846 34.4459H25.8623V3.62384L23.6846 2.58488V34.4459Z" fill="#E03740"/>
<path d="M16.38 49.9689H4.40808V47.8121H12.1397V44.0543L0 44.0193V52.0844C0 52.9906 0.732592 53.7254 1.6355 53.7254H16.38C16.8646 53.7254 17.2579 53.3311 17.2579 52.8442V50.8489C17.2579 50.3619 16.8646 49.9676 16.38 49.9676V49.9689Z" fill="url(#paint0_linear_1179_7)"/>
<path d="M16.38 38.1611H1.6355C0.732592 38.1611 0 38.8971 0 39.8034V41.9414L16.38 41.9188C16.8646 41.9188 17.2579 41.5245 17.2579 41.0376V39.0423C17.2579 38.5554 16.8646 38.1611 16.38 38.1611Z" fill="url(#paint1_linear_1179_7)"/>
<path d="M55.9983 38.1611H41.8149C40.8443 38.1611 40.0566 38.9509 40.0566 39.926V52.8279C40.0566 53.3236 40.4574 53.7254 40.952 53.7254H43.5706C44.0652 53.7254 44.4647 53.3236 44.4647 52.8279V49.3906H53.3485V52.8279C53.3485 53.3236 53.7492 53.7254 54.2439 53.7254H56.8624C57.3571 53.7254 57.7566 53.3236 57.7566 52.8279V39.926C57.7566 38.9509 56.9689 38.1611 55.9983 38.1611ZM53.3485 45.6103H44.4647V41.9414H53.3485V45.6103Z" fill="url(#paint2_linear_1179_7)"/>
<path d="M36.1589 38.1611H34.2254C33.5417 38.1611 32.9881 38.7168 32.9881 39.4028V43.3859L21.0663 38.5003C20.4126 38.2324 19.6963 38.7156 19.6963 39.4241V52.8279C19.6963 53.3236 20.097 53.7254 20.5917 53.7254H23.2102C23.7049 53.7254 24.1044 53.3236 24.1044 52.8279V44.4987L32.9881 48.279V52.8292C32.9881 53.3249 33.3889 53.7267 33.8835 53.7267H36.5021C36.9967 53.7267 37.3962 53.3249 37.3962 52.8292V39.4041C37.3962 38.7181 36.8427 38.1623 36.1589 38.1623V38.1611Z" fill="url(#paint3_linear_1179_7)"/>
<path d="M57.7572 55.9573H0.0615234V57.671H57.7572V55.9573Z" fill="#E03740"/>
</g>
<defs>
<linearGradient id="paint0_linear_1179_7" x1="8.62956" y1="37.7818" x2="8.62956" y2="53.8481" gradientUnits="userSpaceOnUse">
<stop stop-color="#313131"/>
<stop offset="0.49" stop-color="#313131"/>
<stop offset="1" stop-color="#141515"/>
</linearGradient>
<linearGradient id="paint1_linear_1179_7" x1="8.62956" y1="37.7818" x2="8.62956" y2="53.8481" gradientUnits="userSpaceOnUse">
<stop stop-color="#313131"/>
<stop offset="0.49" stop-color="#313131"/>
<stop offset="1" stop-color="#141515"/>
</linearGradient>
<linearGradient id="paint2_linear_1179_7" x1="48.9066" y1="37.7818" x2="48.9066" y2="53.8481" gradientUnits="userSpaceOnUse">
<stop stop-color="#313131"/>
<stop offset="0.49" stop-color="#313131"/>
<stop offset="1" stop-color="#141515"/>
</linearGradient>
<linearGradient id="paint3_linear_1179_7" x1="28.5463" y1="37.7818" x2="28.5463" y2="53.8481" gradientUnits="userSpaceOnUse">
<stop stop-color="#313131"/>
<stop offset="0.49" stop-color="#313131"/>
<stop offset="1" stop-color="#141515"/>
</linearGradient>
<clipPath id="clip0_1179_7">
<rect width="58" height="65" fill="white"/>
</clipPath>
</defs>
</svg>
