<svg width="16" height="16" viewBox="0 0 16 16" fill="none" xmlns="http://www.w3.org/2000/svg">
<g clip-path="url(#clip0_97_593)">
<path d="M14 0.66687H2C1.46957 0.66687 0.960859 0.877584 0.585786 1.25266C0.210714 1.62773 0 2.13644 0 2.66687L0 15.3335H16V2.66687C16 2.13644 15.7893 1.62773 15.4142 1.25266C15.0391 0.877584 14.5304 0.66687 14 0.66687ZM2 2.0002H14C14.1768 2.0002 14.3464 2.07044 14.4714 2.19547C14.5964 2.32049 14.6667 2.49006 14.6667 2.66687V3.11154L9.41467 8.3642C9.03895 8.73841 8.53028 8.94851 8 8.94851C7.46972 8.94851 6.96105 8.73841 6.58533 8.3642L1.33333 3.11154V2.66687C1.33333 2.49006 1.40357 2.32049 1.5286 2.19547C1.65362 2.07044 1.82319 2.0002 2 2.0002ZM1.33333 14.0002V5.0002L5.64267 9.30687C6.26842 9.93104 7.11617 10.2816 8 10.2816C8.88383 10.2816 9.73158 9.93104 10.3573 9.30687L14.6667 5.0002V14.0002H1.33333Z" fill="#E03740"/>
</g>
<defs>
<clipPath id="clip0_97_593">
<rect width="16" height="16" fill="white"/>
</clipPath>
</defs>
</svg>
