<svg width="58" height="65" viewBox="0 0 58 65" fill="none" xmlns="http://www.w3.org/2000/svg">
<g clip-path="url(#clip0_74_208)">
<path d="M3.31858 64.1314V64.9276H0V60.644H3.23843V61.4402H0.985556V62.3702H2.97545V63.1413H0.985556V64.1327H3.31858V64.1314Z" fill="white"/>
<path d="M8.03859 60.6426V64.9261H7.22459L5.08818 62.3249V64.9261H4.10889V60.6426H4.92914L7.06054 63.2437V60.6426H8.03984H8.03859Z" fill="white"/>
<path d="M11.9517 62.7169H12.8583V64.4556C12.6254 64.6308 12.3561 64.7647 12.0506 64.8586C11.7438 64.9525 11.4357 65.0001 11.1264 65.0001C10.6818 65.0001 10.2811 64.9049 9.9267 64.7159C9.57105 64.5257 9.29304 64.2628 9.09016 63.9261C8.88854 63.5893 8.78711 63.2088 8.78711 62.7845C8.78711 62.3601 8.88854 61.9796 9.09016 61.6429C9.29178 61.3061 9.5723 61.0433 9.93171 60.853C10.2911 60.664 10.6956 60.5688 11.1439 60.5688C11.5184 60.5688 11.8602 60.6314 12.1658 60.7579C12.4726 60.8843 12.7293 61.067 12.9372 61.3086L12.2998 61.897C11.9942 61.574 11.6248 61.4138 11.1915 61.4138C10.9185 61.4138 10.6743 61.4714 10.4627 61.5853C10.251 61.6992 10.0857 61.8607 9.96677 62.0685C9.8478 62.2762 9.7902 62.5153 9.7902 62.7845C9.7902 63.0536 9.84905 63.2864 9.96677 63.4942C10.0845 63.702 10.2498 63.8647 10.4602 63.9811C10.6706 64.0976 10.9097 64.1551 11.1802 64.1551C11.4658 64.1551 11.7225 64.0938 11.9517 63.9711V62.7156V62.7169Z" fill="white"/>
<path d="M13.7764 60.6426H14.7682V64.9261H13.7764V60.6426Z" fill="white"/>
<path d="M19.7149 60.6426V64.9261H18.9009L16.7644 62.3249V64.9261H15.7852V60.6426H16.6054L18.7368 63.2437V60.6426H19.7161H19.7149Z" fill="white"/>
<path d="M24.049 64.1314V64.9276H20.7305V60.644H23.9689V61.4402H21.716V62.3702H23.7059V63.1413H21.716V64.1327H24.049V64.1314Z" fill="white"/>
<path d="M28.1579 64.1314V64.9276H24.8394V60.644H28.0778V61.4402H25.8249V62.3702H27.8148V63.1413H25.8249V64.1327H28.1579V64.1314Z" fill="white"/>
<path d="M31.6782 64.9261L30.8517 63.7332H29.9401V64.9261H28.9482V60.6426H30.8029C31.1823 60.6426 31.5117 60.7052 31.7922 60.8328C32.0715 60.9593 32.2869 61.1383 32.4384 61.3711C32.5899 61.6039 32.6651 61.8793 32.6651 62.1973C32.6651 62.5152 32.5887 62.7893 32.4359 63.0197C32.2818 63.25 32.0652 63.4265 31.7834 63.5492L32.7452 64.9261H31.6795H31.6782ZM31.4278 61.6427C31.2725 61.5151 31.0458 61.45 30.7478 61.45H29.9401V62.9433H30.7478C31.0458 62.9433 31.2725 62.8782 31.4278 62.748C31.5831 62.6179 31.6607 62.4338 31.6607 62.1973C31.6607 61.9607 31.5831 61.7717 31.4278 61.6427Z" fill="white"/>
<path d="M33.4478 60.6426H34.4396V64.9261H33.4478V60.6426Z" fill="white"/>
<path d="M39.3872 60.6426V64.9261H38.5732L36.4368 62.3249V64.9261H35.4575V60.6426H36.2778L38.4092 63.2437V60.6426H39.3885H39.3872Z" fill="white"/>
<path d="M43.2993 62.7169H44.206V64.4556C43.973 64.6308 43.7038 64.7647 43.3982 64.8586C43.0914 64.9525 42.7834 65.0001 42.4741 65.0001C42.0295 65.0001 41.6288 64.9049 41.2744 64.7159C40.9187 64.5257 40.6407 64.2628 40.4378 63.9261C40.2362 63.5893 40.1348 63.2088 40.1348 62.7845C40.1348 62.3601 40.2362 61.9796 40.4378 61.6429C40.6394 61.3061 40.92 61.0433 41.2794 60.853C41.6388 60.664 42.0433 60.5688 42.4916 60.5688C42.866 60.5688 43.2079 60.6314 43.5135 60.7579C43.8203 60.8843 44.077 61.067 44.2849 61.3086L43.6475 61.897C43.3419 61.574 42.9725 61.4138 42.5392 61.4138C42.2662 61.4138 42.022 61.4714 41.8103 61.5853C41.5987 61.6992 41.4334 61.8607 41.3144 62.0685C41.1955 62.2762 41.1379 62.5153 41.1379 62.7845C41.1379 63.0536 41.1967 63.2864 41.3144 63.4942C41.4321 63.702 41.5974 63.8647 41.8078 63.9811C42.0182 64.0976 42.2574 64.1551 42.5279 64.1551C42.8134 64.1551 43.0701 64.0938 43.2993 63.9711V62.7156V62.7169Z" fill="white"/>
<path d="M46.8569 60.6426H47.8487V64.1187H49.9977V64.9261H46.8569V60.6426Z" fill="white"/>
<path d="M50.5552 60.6426H51.547V64.1187H53.6959V64.9261H50.5552V60.6426Z" fill="white"/>
<path d="M55.046 64.7159C54.6928 64.5257 54.4148 64.2628 54.2132 63.9261C54.0116 63.5893 53.9102 63.2088 53.9102 62.7845C53.9102 62.3601 54.0116 61.9796 54.2132 61.6429C54.4148 61.3061 54.6928 61.0433 55.046 60.853C55.3991 60.664 55.7961 60.5688 56.2369 60.5688C56.6089 60.5688 56.9445 60.6339 57.2438 60.7641C57.5443 60.8943 57.796 61.0833 58.0001 61.3274L57.3627 61.9145C57.0735 61.579 56.714 61.4125 56.2858 61.4125C56.0203 61.4125 55.7836 61.4701 55.5757 61.5865C55.3678 61.7029 55.205 61.8657 55.0886 62.0735C54.9721 62.2813 54.9145 62.5178 54.9145 62.7832C54.9145 63.0486 54.9721 63.2852 55.0886 63.493C55.205 63.7007 55.3678 63.8635 55.5757 63.9799C55.7836 64.0963 56.0203 64.1539 56.2858 64.1539C56.714 64.1539 57.0735 63.9836 57.3627 63.6457L58.0001 64.2327C57.796 64.4818 57.5431 64.6709 57.2413 64.8023C56.9395 64.9337 56.6026 64.9976 56.2307 64.9976C55.7936 64.9976 55.3991 64.9024 55.046 64.7134V64.7159Z" fill="white"/>
<path d="M0.0615234 0V34.4459H16.8548V22.4465L15.1767 23.8585V32.6433H1.77591V1.71366H56.0428V32.6446H42.642V18.9453L40.9577 18.1367V34.4459H57.7572V0H0.0615234Z" fill="#E03740"/>
<path d="M17.8706 34.4459H19.5487V18.2544L17.8706 19.6664V34.4459Z" fill="#E03740"/>
<path d="M20.8735 34.4457H22.5516V16.0474L20.8735 17.4593V34.4457Z" fill="#E03740"/>
<path d="M26.5688 34.4457H28.8067V5.0282L26.5688 3.96045V34.4457Z" fill="#E03740"/>
<path d="M38.3667 34.4457H39.8745V17.6171L38.3667 16.8936V34.4457Z" fill="#E03740"/>
<path d="M35.2822 8.11663L33.9873 7.49951V34.4461H37.2846V16.3745L35.2822 15.4144V8.11663Z" fill="#E03740"/>
<path d="M29.5132 18.6601L31.0435 17.7188V6.09501L29.5132 5.36523V18.6601Z" fill="#E03740"/>
<path d="M31.751 17.6509L33.2813 16.7083V7.16239L31.751 6.43262V17.6509Z" fill="#E03740"/>
<path d="M23.6846 34.4459H25.8623V3.62392L23.6846 2.58496V34.4459Z" fill="#E03740"/>
<path d="M16.38 49.9691H4.40808V47.8124H12.1397V44.0546L0 44.0195V52.0846C0 52.9909 0.732592 53.7257 1.6355 53.7257H16.38C16.8646 53.7257 17.2579 53.3314 17.2579 52.8444V50.8491C17.2579 50.3622 16.8646 49.9679 16.38 49.9679V49.9691Z" fill="white"/>
<path d="M16.38 38.1611H1.6355C0.732592 38.1611 0 38.8972 0 39.8034V41.9414L16.38 41.9189C16.8646 41.9189 17.2579 41.5246 17.2579 41.0377V39.0424C17.2579 38.5554 16.8646 38.1611 16.38 38.1611Z" fill="white"/>
<path d="M55.9988 38.1611H41.8154C40.8448 38.1611 40.0571 38.951 40.0571 39.9261V52.828C40.0571 53.3237 40.4579 53.7255 40.9525 53.7255H43.5711C44.0657 53.7255 44.4652 53.3237 44.4652 52.828V49.3906H53.349V52.828C53.349 53.3237 53.7497 53.7255 54.2444 53.7255H56.8629C57.3576 53.7255 57.7571 53.3237 57.7571 52.828V39.9261C57.7571 38.951 56.9694 38.1611 55.9988 38.1611ZM53.349 45.6103H44.4652V41.9414H53.349V45.6103Z" fill="white"/>
<path d="M36.1589 38.1611H34.2254C33.5417 38.1611 32.9881 38.7169 32.9881 39.4029V43.386L21.0663 38.5004C20.4126 38.2325 19.6963 38.7157 19.6963 39.4242V52.828C19.6963 53.3237 20.097 53.7255 20.5917 53.7255H23.2102C23.7049 53.7255 24.1044 53.3237 24.1044 52.828V44.4988L32.9881 48.2791V52.8292C32.9881 53.3249 33.3889 53.7267 33.8835 53.7267H36.5021C36.9967 53.7267 37.3962 53.3249 37.3962 52.8292V39.4041C37.3962 38.7182 36.8427 38.1624 36.1589 38.1624V38.1611Z" fill="white"/>
<path d="M57.7572 55.9575H0.0615234V57.6712H57.7572V55.9575Z" fill="#E03740"/>
</g>
<defs>
<clipPath id="clip0_74_208">
<rect width="58" height="65" fill="white"/>
</clipPath>
</defs>
</svg>
